<svg width="185" height="40" viewBox="0 0 185 40" fill="none" xmlns="http://www.w3.org/2000/svg">
<path d="M17.1468 8.78115C18.0449 6.01722 21.9551 6.01722 22.8532 8.78115L23.8167 11.7467C24.2184 12.9828 25.3702 13.8197 26.6699 13.8197H29.7881C32.6943 13.8197 33.9026 17.5385 31.5514 19.2467L29.0288 21.0795C27.9773 21.8435 27.5373 23.1976 27.939 24.4336L28.9025 27.3992C29.8006 30.1631 26.6372 32.4615 24.286 30.7533L21.7634 28.9205C20.7119 28.1565 19.2881 28.1565 18.2366 28.9205L15.714 30.7533C13.3628 32.4615 10.1994 30.1631 11.0975 27.3992L12.061 24.4336C12.4627 23.1976 12.0227 21.8435 10.9712 21.0795L8.44856 19.2467C6.09742 17.5385 7.30575 13.8197 10.2119 13.8197H13.3301C14.6298 13.8197 15.7816 12.9828 16.1833 11.7467L17.1468 8.78115Z" fill="#FFA24D"/>
<path d="M53.6537 8.54635C54.5649 5.81027 58.4351 5.81026 59.3463 8.54635L60.4191 11.7676C60.8272 12.993 61.9738 13.8197 63.2654 13.8197H66.5765C69.5006 13.8197 70.6969 17.5762 68.3114 19.2672L65.7611 21.0748C64.6836 21.8386 64.2323 23.2172 64.6497 24.4703L65.6537 27.485C66.5699 30.2359 63.438 32.5572 61.0725 30.8804L58.2348 28.869C57.1956 28.1324 55.8044 28.1324 54.7652 28.869L51.9275 30.8804C49.562 32.5572 46.4301 30.2359 47.3463 27.485L48.3503 24.4703C48.7677 23.2172 48.3164 21.8386 47.2389 21.0748L44.6886 19.2672C42.3031 17.5762 43.4994 13.8197 46.4235 13.8197H49.7346C51.0262 13.8197 52.1728 12.993 52.5809 11.7676L53.6537 8.54635Z" fill="#FFA24D"/>
<path d="M89.6537 8.54635C90.5649 5.81027 94.4351 5.81026 95.3463 8.54635L96.4191 11.7676C96.8272 12.993 97.9738 13.8197 99.2654 13.8197H102.577C105.501 13.8197 106.697 17.5762 104.311 19.2672L101.761 21.0748C100.684 21.8386 100.232 23.2172 100.65 24.4703L101.654 27.485C102.57 30.2359 99.438 32.5572 97.0725 30.8804L94.2348 28.869C93.1956 28.1324 91.8044 28.1324 90.7652 28.869L87.9275 30.8804C85.562 32.5572 82.4301 30.2359 83.3463 27.485L84.3503 24.4703C84.7677 23.2172 84.3164 21.8386 83.2389 21.0748L80.6886 19.2672C78.3031 17.5762 79.4994 13.8197 82.4235 13.8197H85.7346C87.0262 13.8197 88.1728 12.993 88.5809 11.7676L89.6537 8.54635Z" fill="#FFA24D"/>
<path d="M125.654 8.54635C126.565 5.81027 130.435 5.81026 131.346 8.54635L132.419 11.7676C132.827 12.993 133.974 13.8197 135.265 13.8197H138.577C141.501 13.8197 142.697 17.5762 140.311 19.2672L137.761 21.0748C136.684 21.8386 136.232 23.2172 136.65 24.4703L137.654 27.485C138.57 30.2359 135.438 32.5572 133.073 30.8804L130.235 28.869C129.196 28.1324 127.804 28.1324 126.765 28.869L123.927 30.8804C121.562 32.5572 118.43 30.2359 119.346 27.485L120.35 24.4703C120.768 23.2172 120.316 21.8386 119.239 21.0748L116.689 19.2672C114.303 17.5762 115.499 13.8197 118.423 13.8197H121.735C123.026 13.8197 124.173 12.993 124.581 11.7676L125.654 8.54635Z" fill="#FFA24D"/>
<path d="M162.147 8.78115C163.045 6.01722 166.955 6.01722 167.853 8.78115L168.817 11.7467C169.218 12.9828 170.37 13.8197 171.67 13.8197H174.788C177.694 13.8197 178.903 17.5385 176.551 19.2467L174.029 21.0795C172.977 21.8435 172.537 23.1976 172.939 24.4336L173.903 27.3992C174.801 30.1631 171.637 32.4615 169.286 30.7533L166.763 28.9205C165.712 28.1565 164.288 28.1565 163.237 28.9205L160.714 30.7533C158.363 32.4615 155.199 30.1631 156.097 27.3992L157.061 24.4336C157.463 23.1976 157.023 21.8435 155.971 21.0795L153.449 19.2467C151.097 17.5385 152.306 13.8197 155.212 13.8197H158.33C159.63 13.8197 160.782 12.9828 161.183 11.7467L162.147 8.78115Z" fill="#FFA24D"/>
</svg>
